Harry Kumel's last major film to-date, a masterpiece of vividly operatic style and fluid camerawork. Despite being based on a 19th century classic Dutch novel, the film is less a traditional costumer (as apparently the critics took it to be) than a flamboyant fantasy on Kumel's running theme of a vicious cycle of repeated wrong decisions and bad choices that engulf the lead character and eventually destroy her. The film displays the usual influences of von Sternberg, Resnais, Bergman, the Belgian symbolists, but creates a uniquely Kumelian feel and texture of a different reality at one remove from ours.

Format : AVI
File size : 700 MiB + 600 MiB + 650 MiB
Duration : 62mn + 49mn + 55mn
Overall bit rate : 1 564 Kbps
Writing application : VirtualDubMod 1.5.4.1 (build 2178/release)

Video
Format : MPEG-4 Visual
Codec ID : XVID
Width : 608 pixels
Height : 464 pixels
Display aspect ratio : 4:3
Frame rate : 25.000 fps
Resolution : 24 bits
Colorimetry : 4:2:0
Scan type : Progressive
Bits/(Pixel*Frame) : 0.203
Stream size : 643 MiB (92%)
Writing library : XviD 1.2.0.dev47 (UTC 2006-11-01)

Audio
Format : MPEG Audio
Codec ID/Hint : MP3
Bit rate mode : Variable
Bit rate : 115 Kbps
Nominal bit rate : 128 Kbps
Channel(s) : 2 channels
Sampling rate : 48.0 KHz
Resolution : 16 bits
Stream size : 51.7 MiB (7%)
Alignment : Aligned on interleaves
Interleave, duration : 24 ms (0.60 video frame)
Interleave, preload duration : 460 ms

Subtitles
Language: english
Format: srt
 
http://i380.photobucket.com/albums/oo247/playback1234/eline01.jpg 
http://i380.photobucket.com/albums/oo247/playback1234/eline02.jpg 
http://i380.photobucket.com/albums/oo247/playback1234/eline03.jpg